<svg xmlns="http://www.w3.org/2000/svg" width="70" height="70" viewBox="0 0 70 70">
  <defs>
    <style>
      .cls-1 {
        fill: #fff;
        stroke: #fff;
        stroke-width: 2.121px;
        fill-rule: evenodd;
      }
    </style>
  </defs>
  <path id="Forma_1" data-name="Forma 1" class="cls-1" d="M58.9,70H43.43a1.066,1.066,0,0,1-1.072-1.059V47.378H27.632V68.943A1.066,1.066,0,0,1,26.559,70H11.08a1.066,1.066,0,0,1-1.072-1.059V33.763H1.177a1.074,1.074,0,0,1-1-.667,1.056,1.056,0,0,1,.259-1.161L34.254,0.385a1.083,1.083,0,0,1,1.475,0l33.823,31.55a1.056,1.056,0,0,1,.26,1.161,1.074,1.074,0,0,1-1,.667H59.977V68.943A1.066,1.066,0,0,1,58.9,70ZM44.5,67.884h13.33V32.7A1.066,1.066,0,0,1,58.9,31.644h7.212L34.992,2.611,3.875,31.644H11.08A1.066,1.066,0,0,1,12.153,32.7V67.884H25.487V46.319a1.066,1.066,0,0,1,1.072-1.059H43.43A1.066,1.066,0,0,1,44.5,46.319V67.884Z"/>
</svg>
